<?xml version="1.0" encoding="UTF-8" standalone="no"?>
<!-- Created with Inkscape (http://www.inkscape.org/) -->

<svg
   width="98.866211mm"
   height="78.367332mm"
   viewBox="0 0 98.866209 78.367333"
   version="1.1"
   id="svg5"
   xml:space="preserve"
   inkscape:version="1.2.1 (9c6d41e4, 2022-07-14)"
   sodipodi:docname="boat1c.svg"
   xmlns:inkscape="http://www.inkscape.org/namespaces/inkscape"
   xmlns:sodipodi="http://sodipodi.sourceforge.net/DTD/sodipodi-0.dtd"
   xmlns="http://www.w3.org/2000/svg"
   xmlns:svg="http://www.w3.org/2000/svg"><sodipodi:namedview
     id="namedview7"
     pagecolor="#ffffff"
     bordercolor="#000000"
     borderopacity="0.25"
     inkscape:showpageshadow="2"
     inkscape:pageopacity="0.0"
     inkscape:pagecheckerboard="false"
     inkscape:deskcolor="#d1d1d1"
     inkscape:document-units="mm"
     showgrid="true"
     inkscape:zoom="1.4600773"
     inkscape:cx="142.80066"
     inkscape:cy="153.75898"
     inkscape:window-width="1664"
     inkscape:window-height="913"
     inkscape:window-x="0"
     inkscape:window-y="25"
     inkscape:window-maximized="0"
     inkscape:current-layer="svg5"><inkscape:page
       x="0"
       y="0"
       width="98.866211"
       height="78.367332"
       id="page741" /><inkscape:page
       x="-40.84214"
       y="-58.995216"
       width="240.88501"
       height="211.43002"
       id="page743" /><inkscape:grid
       type="xygrid"
       id="grid2394"
       originx="-260.84207"
       originy="-58.995209" /><inkscape:page
       x="210.04288"
       y="-30.488899"
       width="240.88498"
       height="211.43002"
       id="page15740" /></sodipodi:namedview><defs
     id="defs2"><clipPath
       clipPathUnits="userSpaceOnUse"
       id="clipPath721"><path
         d="M 0,0 H 683 V 600 H 0 Z"
         id="path719" /></clipPath><clipPath
       clipPathUnits="userSpaceOnUse"
       id="clipPath12197"><rect
         style="opacity:1;fill:none;stroke:#c83737;stroke-width:0.105455;stroke-dasharray:none;stroke-opacity:0.974093"
         id="rect12199"
         width="199.63887"
         height="441.19257"
         x="486.59082"
         y="59.480129"
         transform="matrix(1,0,0.00812047,0.99996703,0,0)" /></clipPath><clipPath
       clipPathUnits="userSpaceOnUse"
       id="clipPath12203"><rect
         style="opacity:1;fill:none;stroke:#c83737;stroke-width:0.11202;stroke-dasharray:none;stroke-opacity:0.974093"
         id="rect12205"
         width="184.70584"
         height="439.30054"
         x="2.0562654"
         y="67.203575" /></clipPath><clipPath
       clipPathUnits="userSpaceOnUse"
       id="clipPath12207"><rect
         style="opacity:1;fill:none;stroke:#c83737;stroke-width:0.0201233;stroke-dasharray:none;stroke-opacity:0.974093"
         id="rect12209"
         width="33.180496"
         height="78.91581"
         x="71.361122"
         y="32.140724" /></clipPath><clipPath
       clipPathUnits="userSpaceOnUse"
       id="clipPath12267"><path
         style="opacity:1;fill:none;stroke:#c83737;stroke-width:0.111334;stroke-dasharray:none;stroke-opacity:0.974093"
         d="m 487.21654,59.3612 3.52189,437.27599 265.314,-21.96174 L 744.04845,59.994513 470.1408,17.435152 Z"
         id="path12269"
         sodipodi:nodetypes="cccccc" /></clipPath><clipPath
       clipPathUnits="userSpaceOnUse"
       id="clipPath15720"><path
         d="M 0,0 H 683 V 600 H 0 Z"
         id="path15718" /></clipPath><clipPath
       clipPathUnits="userSpaceOnUse"
       id="clipPath517"><path
         style="fill:none;stroke:#c83737;stroke-width:0.136984;stroke-opacity:0.974093"
         d="m 490.78284,495.07523 -3.41317,-434.714679 214.40961,2.7e-5 -1.24122,434.094122 z"
         id="path519"
         sodipodi:nodetypes="ccccc" /></clipPath><clipPath
       clipPathUnits="userSpaceOnUse"
       id="clipPath521"><path
         style="fill:none;stroke:#c83737;stroke-width:0.02;stroke-opacity:0.974093"
         d="m 86.075634,77.377462 -0.498332,-63.469452 31.304348,4e-6 -0.18122,63.378849 z"
         id="path523"
         sodipodi:nodetypes="ccccc" /></clipPath><clipPath
       clipPathUnits="userSpaceOnUse"
       id="clipPath579"><rect
         style="fill:none;stroke:#c83737;stroke-width:0.137185;stroke-opacity:0.974093"
         id="rect581"
         width="199.22168"
         height="438.33804"
         x="-11.880571"
         y="67.383446" /></clipPath></defs><g
     inkscape:label="Layer 1"
     inkscape:groupmode="layer"
     id="layer1"
     transform="translate(-260.84214,-58.995215)" /><g
     id="g1174"
     transform="translate(-174.50703,-16.671491)"><g
       id="g1144"
       transform="translate(174.50703,16.671491)"><g
         id="g15674"
         transform="matrix(0.14600255,0,0,0.14600255,-0.41395843,-8.7221924)"><path
           d="m 355.27,325.406 c 0,6.071 -4.426,10.992 -9.887,10.992 -5.465,0 -9.891,-4.921 -9.891,-10.992 0,-6.07 4.426,-10.988 9.891,-10.988 5.461,0 9.887,4.918 9.887,10.988 z"
           style="fill:#808080;fill-opacity:1;fill-rule:nonzero;stroke:#808080;stroke-width:0.708661;stroke-linecap:butt;stroke-linejoin:miter;stroke-miterlimit:4;stroke-dasharray:none;stroke-opacity:1"
           id="path15676" /></g><g
         id="g15678"
         transform="matrix(0.14600255,0,0,0.14600255,-0.41395843,-8.7221924)"><path
           d="m 461.02,463.867 c 0.109,5.028 -0.184,4.242 -0.247,6.504 -0.207,7.574 -5.796,14.289 -16.64,13.828 H 389.43 c -7.621,-0.758 -16.817,1.403 -19.485,-13.047 l -0.75,-32.617 c -0.453,-9.324 2.52,-19.437 16.485,-19.57 19.355,0.508 39.953,-0.508 58.914,0.332 15.308,0.051 15.832,9.144 16.379,16.844 l -0.352,14.625 -92.176,0.816"
           style="fill:none;stroke:#808080;stroke-width:14.1732;stroke-linecap:butt;stroke-linejoin:miter;stroke-miterlimit:4;stroke-dasharray:none;stroke-opacity:1"
           id="path15680" /></g><g
         id="g15682"
         transform="matrix(0.14600255,-8.4516674e-4,0,0.14600255,-0.41395843,-8.2196778)"
         clip-path="url(#clipPath517)"><path
           d="M 497.742,492.406 494.344,62.617 c 84.488,78.348 60.586,178.981 1.5,232.399 l 158.898,182.082"
           style="fill:none;stroke:#808080;stroke-width:14.1732;stroke-linecap:butt;stroke-linejoin:miter;stroke-miterlimit:4;stroke-dasharray:none;stroke-opacity:1"
           id="path15684" /></g><g
         id="g15686"
         transform="matrix(0.14600255,0,0,0.14600255,-0.41395843,-8.7221924)"><path
           d="m 304.746,324.371 c 0,6.758 -5.035,12.234 -11.242,12.234 -6.207,0 -11.242,-5.476 -11.242,-12.234 0,-6.754 5.035,-12.23 11.242,-12.23 6.207,0 11.242,5.476 11.242,12.23 z"
           style="fill:#808080;fill-opacity:1;fill-rule:nonzero;stroke:#808080;stroke-width:1.41732;stroke-linecap:butt;stroke-linejoin:miter;stroke-miterlimit:4;stroke-dasharray:none;stroke-opacity:1"
           id="path15688" /></g><g
         id="g15690"
         transform="matrix(0.14600255,0,0,0.14600255,-0.41395843,-8.7221924)"><path
           d="m 327.297,348.207 -0.422,-19.676 c -0.012,-5.402 1.32,-9.582 4.801,-12.449 2.097,-1.762 4.289,-2.578 6.359,-2.461 2.289,0.012 6.067,0.84 8.156,2.738 1.653,1.5 6.954,7.301 1.59,7.254"
           style="fill:none;stroke:#808080;stroke-width:9.92126;stroke-linecap:butt;stroke-linejoin:miter;stroke-miterlimit:4;stroke-dasharray:none;stroke-opacity:1"
           id="path15692" /></g><g
         id="g15694"
         transform="matrix(0.14600255,0,0,0.14600255,-0.41395843,-8.7221924)"><path
           d="m 331.723,495.387 -2.246,-143.289 25.32,-0.614"
           style="fill:none;stroke:#808080;stroke-width:14.1732;stroke-linecap:butt;stroke-linejoin:miter;stroke-miterlimit:4;stroke-dasharray:none;stroke-opacity:1"
           id="path15696" /></g><g
         id="g15698"
         transform="matrix(0.14600255,0,0,0.14600255,-0.41395843,-8.7221924)"><path
           d="M 294.254,346.258 298,492.352"
           style="fill:none;stroke:#808080;stroke-width:14.1732;stroke-linecap:butt;stroke-linejoin:miter;stroke-miterlimit:4;stroke-dasharray:none;stroke-opacity:1"
           id="path15700" /></g><g
         id="g15702"
         transform="matrix(0.14600255,0,0,0.14600255,-0.41395843,-8.7221924)"><path
           d="m 10.98,505.398 556.805,-12.23 99.715,-18.09 11.039,-2.308 -107.754,20.398 -70.445,94.699 -477.371,1.52 z"
           style="fill:#ececec;fill-opacity:1;fill-rule:nonzero;stroke:#808080;stroke-width:14.1732;stroke-linecap:butt;stroke-linejoin:miter;stroke-miterlimit:4;stroke-dasharray:none;stroke-opacity:1"
           id="path15704" /></g><g
         id="g15706"
         transform="matrix(0.14600255,0,0,0.14600255,-0.41395843,-8.7221924)"
         clip-path="url(#clipPath579)"><path
           d="M 74.211,68.898 84.422,491.523 C 216.086,355.008 173.188,139.562 74.211,68.898 Z"
           style="fill:none;stroke:#808080;stroke-width:14.1732;stroke-linecap:butt;stroke-linejoin:miter;stroke-miterlimit:4;stroke-dasharray:none;stroke-opacity:1"
           id="path15708" /></g><g
         id="g15710"
         transform="matrix(0.14600255,0,0,0.14600255,-0.41395843,-8.7221924)"><path
           d="m 259.781,444.242 c 0,-2.027 0.004,-4.054 -0.039,-6.308 -0.207,-10.981 -6.16,-19.004 -23.941,-18.969 H 184.84 c -13.969,0.367 -19.492,8.613 -19.485,22.015 l 0.75,30.985 c 3.184,19.512 13.649,15.242 22.481,16.308 16.238,0 32.476,0 48.715,0 10.887,-1.461 19.082,-2.218 22.011,-13.957 0.485,-1.945 0.551,-5.89 0.555,-8.058"
           style="fill:none;stroke:#808080;stroke-width:14.1732;stroke-linecap:butt;stroke-linejoin:miter;stroke-miterlimit:4;stroke-dasharray:none;stroke-opacity:1"
           id="path15712" /></g><g
         id="g15714"
         transform="matrix(0.14600255,0,0,0.14600255,-0.41395843,-8.7221924)"><g
           id="g15716" /><g
           id="g15730"><g
             clip-path="url(#clipPath15720)"
             opacity="0.248889"
             id="g15728"><g
               id="g15726"><g
                 id="g15724"><path
                   d="m 305.457,327.363 c 0,0.016 -0.004,0.032 -0.004,0.043"
                   style="fill:none;stroke:#808080;stroke-width:1.41732;stroke-linecap:butt;stroke-linejoin:miter;stroke-miterlimit:4;stroke-dasharray:none;stroke-opacity:1"
                   id="path15722" /></g></g></g></g></g></g></g></svg>
